<?xml version="1.0" encoding="iso-8859-1"?>
<svg fill="#000000" height="20" width="20" version="1.1" id="Layer_1" xmlns="http://www.w3.org/2000/svg" xmlns:xlink="http://www.w3.org/1999/xlink"
	 viewBox="0 0 512.002 512.002" xml:space="preserve">
<g>
	<g>
		<path d="M454.077,139.678c15.66,0,28.43-12.713,28.484-28.387c0.027-7.609-2.911-14.772-8.272-20.171
			c-5.362-5.4-12.505-8.387-20.113-8.413c-1.154,0-3.566-0.006-18.611,1.988c12.111-9.139,13.824-10.835,14.646-11.651
			c5.4-5.362,8.388-12.505,8.413-20.115c0.027-7.609-2.911-14.773-8.272-20.17c-5.361-5.4-12.505-8.388-20.113-8.415
			c-0.035,0-0.069,0-0.102,0c-7.57,0-14.694,2.937-20.068,8.272c-0.821,0.816-2.529,2.516-11.753,14.563
			c2.1-15.026,2.112-17.437,2.117-18.593C400.486,12.879,387.752,0.055,372.046,0c-0.035,0-0.068,0-0.101,0
			c-15.66,0-28.43,12.714-28.484,28.385c-0.004,1.157-0.008,3.567,1.987,18.608c-9.142-12.112-10.836-13.824-11.65-14.643
			c-5.361-5.4-12.505-8.388-20.113-8.415c-7.648-0.016-14.773,2.911-20.172,8.272c-5.4,5.361-8.387,12.505-8.413,20.114
			c-0.026,7.609,2.911,14.773,8.272,20.172c0.815,0.821,2.516,2.528,14.563,11.753c-15.027-2.101-17.437-2.112-18.594-2.117
			c-0.035,0-0.069,0-0.102,0c-7.569,0-14.694,2.937-20.068,8.272c-5.4,5.361-8.388,12.505-8.413,20.114
			c-0.055,15.707,12.679,28.53,28.385,28.585c0.055,0,0.113,0,0.176,0c1.239,0,4.104-0.086,18.431-1.986
			c-12.111,9.14-13.823,10.835-14.643,11.65c-5.4,5.361-8.387,12.505-8.413,20.114c-0.027,7.609,2.911,14.773,8.272,20.172
			c5.362,5.4,12.505,8.386,20.114,8.413c0.034,0,0.068,0,0.101,0c0.029,0,0.057-0.002,0.086-0.002
			c-19.001,38.48-34.297,80.759-39.429,97.974c-9.814,32.917-11.595,63.634-14.828,119.396c-1.705,29.397-2.521,59.056-2.427,88.155
			c0.017,4.984,4.061,9.013,9.041,9.013c0.01,0,0.021,0,0.03,0c4.993-0.017,9.028-4.078,9.013-9.07
			c-0.094-28.731,0.712-58.02,2.395-87.049c3.06-52.779,4.885-80.013,11.702-106.606c6.846,1.347,13.753,2.034,20.653,2.034
			c12.63,0,25.232-2.253,37.352-6.74c21.51-7.961,39.579-22.241,52.255-41.293c1.601-2.407,1.955-5.436,0.951-8.147
			c-1.004-2.711-3.243-4.78-6.026-5.564c-22.026-6.21-45.036-5.283-66.546,2.68c-8.392,3.105-16.249,7.185-23.478,12.122
			c10.283-26.669,25.034-60.711,40.702-87.009c-1.725,12.601-1.735,14.781-1.74,15.865c-0.055,15.707,12.68,28.53,28.386,28.585
			c0.034,0,0.069,0,0.102,0c7.571,0,14.693-2.935,20.068-8.272c5.4-5.36,8.388-12.504,8.413-20.112
			c0.004-1.159,0.01-3.57-1.985-18.609c9.138,12.108,10.834,13.823,11.65,14.645c5.56,5.598,12.886,8.4,20.214,8.4
			c7.261,0,14.524-2.751,20.071-8.26c5.4-5.361,8.388-12.504,8.413-20.114c0.027-7.609-2.911-14.773-8.272-20.17
			c-0.816-0.821-2.517-2.53-14.563-11.754c15.027,2.101,17.437,2.112,18.594,2.117C454.009,139.678,454.042,139.678,454.077,139.678
			z M333.673,269.203c13.489-4.992,27.684-6.661,41.702-4.97c-9.538,10.41-21.398,18.384-34.888,23.379
			c-13.487,4.993-27.684,6.662-41.702,4.969C308.323,282.17,320.184,274.196,333.673,269.203z M289.216,121.018
			c-0.005,0-0.01,0-0.014,0c-5.736-0.02-10.387-4.703-10.366-10.439c0.01-2.78,1.101-5.389,3.073-7.346
			c1.963-1.949,4.564-3.021,7.328-3.021c0.012,0,0.025,0,0.037,0c1.482,0.007,9.063,0.682,46.942,6.516l-0.028,8.104
			C298.387,120.381,290.732,121.018,289.216,121.018z M320.503,176.36c-1.971,1.957-4.556,2.988-7.366,3.021
			c-2.779-0.01-5.387-1.101-7.345-3.072c-1.958-1.972-3.031-4.589-3.021-7.367c0.01-2.78,1.101-5.387,3.074-7.346
			c1.054-1.044,6.891-5.926,37.799-28.584l5.709,5.75C347.936,140.666,321.388,175.48,320.503,176.36z M343.799,88.599
			c-30.749-22.876-36.553-27.798-37.598-28.848c-1.958-1.97-3.032-4.587-3.022-7.366c0.01-2.78,1.101-5.387,3.073-7.346
			c1.963-1.948,4.564-3.021,7.33-3.021c0.012,0,0.025,0,0.037,0c2.779,0.01,5.387,1.101,7.346,3.074
			c1.044,1.054,5.926,6.891,28.583,37.798L343.799,88.599z M371.982,18.083c5.736,0.021,10.387,4.703,10.366,10.439
			c-0.006,1.483-0.682,9.066-6.516,46.941l-8.104-0.028c-5.567-37.919-6.19-45.504-6.187-46.987
			C361.562,22.713,366.221,18.055,371.982,18.083z M378.698,200.703c-1.971,1.958-4.562,2.979-7.366,3.021
			c-5.737-0.021-10.387-4.703-10.368-10.437c0.006-1.483,0.682-9.066,6.517-46.942l8.102,0.029c5.568,37.914,6.19,45.5,6.187,46.985
			C381.761,196.137,380.669,198.745,378.698,200.703z M383.901,123.229l-0.006,0.006c-3.275,3.251-7.615,5.04-12.228,5.043
			l-0.083-0.001c-4.635-0.019-8.987-1.841-12.254-5.132c-3.269-3.291-5.062-7.66-5.045-12.3c0.017-4.641,1.838-8.997,5.131-12.266
			c3.278-3.255,7.622-5.046,12.24-5.046c0.022,0,0.042,0,0.063,0c4.638,0.017,8.991,1.837,12.259,5.125l0.012,0.012
			C390.732,105.465,390.693,116.48,383.901,123.229z M422.809,45.447c1.963-1.948,4.564-3.021,7.33-3.021c0.012,0,0.025,0,0.037,0
			c2.779,0.01,5.388,1.101,7.345,3.074c1.958,1.971,3.031,4.587,3.021,7.366s-1.101,5.388-3.073,7.345
			c-1.054,1.044-6.893,5.928-37.799,28.584l-2.855-2.874l-2.856-2.875C416.833,52.298,421.757,46.494,422.809,45.447z
			 M437.113,162.059c1.958,1.969,3.031,4.585,3.021,7.365c-0.01,2.779-1.101,5.388-3.073,7.345
			c-4.071,4.042-10.67,4.018-14.711-0.051c-1.044-1.054-5.928-6.893-28.585-37.8l5.749-5.709
			C430.26,156.082,436.066,161.006,437.113,162.059z M407.096,115.079l0.029-8.104c37.796-5.55,45.453-6.187,46.971-6.187
			c0.006,0,0.01,0,0.014,0c2.779,0.01,5.388,1.101,7.345,3.073c1.959,1.972,3.032,4.588,3.021,7.366
			c-0.021,5.724-4.682,10.367-10.401,10.367c-0.012,0-0.025,0-0.037,0C452.557,121.588,444.976,120.913,407.096,115.079z"/>
	</g>
</g>
<g>
	<g>
		<path d="M263.513,231.907c7.116-21.803,7.144-44.833,0.081-66.6c-0.892-2.75-3.046-4.907-5.795-5.803
			c-2.75-0.897-5.761-0.427-8.104,1.269c-18.543,13.408-32.107,32.021-39.223,53.824c-1.971,6.04-3.378,12.175-4.262,18.348
			c-7.466-12.908-15.985-25.485-25.531-37.682c23.305-20.997,28.642-56.476,11.087-83.657l-51.511-79.754
			c-2.182-3.377-6.33-4.91-10.183-3.758c-3.852,1.151-6.482,4.706-6.454,8.727l0.259,36.783L89.104,58.848
			c-2.738-1.161-5.872-0.904-8.382,0.693c-2.51,1.595-4.075,4.324-4.184,7.296l-1.413,38.25L42.384,89.43
			c-3.648-1.744-8.014-0.856-10.688,2.183c-2.673,3.038-3.003,7.48-0.808,10.879l25.635,39.691c2.71,4.194,8.307,5.398,12.501,2.688
			c4.194-2.709,5.398-8.306,2.69-12.5l-8.29-12.834l16.325,7.807c2.747,1.316,5.973,1.157,8.58-0.419
			c2.606-1.577,4.245-4.359,4.357-7.403l1.437-38.901l35.363,15.004c2.803,1.191,6.017,0.888,8.548-0.802
			c2.533-1.689,4.044-4.541,4.024-7.585l-0.137-19.479l34.656,53.658c14.065,21.777,7.791,50.937-13.985,65.003
			c-21.777,14.061-50.937,7.79-65.002-13.987c-2.71-4.195-8.307-5.398-12.501-2.688c-4.194,2.709-5.398,8.306-2.69,12.5
			c12.44,19.259,33.404,29.762,54.787,29.761c9.657,0,19.398-2.149,28.479-6.595c17.092,21.668,30.728,44.577,40.729,68.397
			c-7.115-4.728-14.845-8.589-23.092-11.465c-20.608-7.184-42.518-7.649-63.362-1.339c-2.767,0.838-4.967,2.948-5.919,5.678
			c-0.952,2.731-0.54,5.752,1.107,8.126c12.406,17.897,29.857,31.153,50.467,38.337c10.994,3.832,22.355,5.752,33.729,5.752
			c6.978,0,13.959-0.739,20.862-2.186c5.392,24.428,7.154,51.285,9.93,99.171c1.683,29.029,2.489,58.317,2.395,87.049
			c-0.017,4.993,4.018,9.055,9.013,9.07c0.01,0,0.021,0,0.03,0c4.979,0,9.025-4.029,9.041-9.013
			c0.095-29.099-0.722-58.758-2.427-88.155c-3.232-55.762-5.014-86.481-14.827-119.396c-1.332-4.47-2.782-8.914-4.345-13.329
			C245.128,269.052,257.014,251.816,263.513,231.907z M171.546,296.069c-12.489-4.353-23.569-11.413-32.62-20.707
			c12.868-1.66,25.936-0.298,38.424,4.055c12.489,4.353,23.569,11.413,32.619,20.707
			C197.102,301.776,184.035,300.421,171.546,296.069z M224.324,262.072c-2.236-13.942-1.124-28.19,3.339-41.864
			c4.463-13.674,11.97-25.837,22-35.774c2.236,13.94,1.122,28.19-3.341,41.863C241.86,239.971,234.354,252.134,224.324,262.072z"/>
	</g>
</g>
</svg>
