<?xml version="1.0" standalone="no"?>
<!DOCTYPE svg PUBLIC "-//W3C//DTD SVG 20010904//EN"
 "http://www.w3.org/TR/2001/REC-SVG-20010904/DTD/svg10.dtd">
<svg version="1.0" xmlns="http://www.w3.org/2000/svg"
 width="479.000000pt" height="167.000000pt" viewBox="0 0 479.000000 167.000000"
 preserveAspectRatio="xMidYMid meet">

<g transform="translate(0.000000,167.000000) scale(0.100000,-0.100000)"
fill="#FFFFFF" stroke="none">
<path d="M1440 1541 c-40 -22 -118 -95 -176 -163 l-39 -47 0 70 c0 51 -4 72
-15 79 -23 15 -32 8 -83 -66 -47 -68 -115 -149 -263 -314 -42 -47 -90 -109
-106 -137 l-30 -53 -35 15 c-45 19 -133 30 -168 21 -15 -4 -48 -27 -75 -52
l-48 -45 -28 48 c-15 26 -38 62 -51 80 -23 30 -23 33 -9 62 20 38 20 70 0 121
-16 40 -17 40 -31 20 -10 -14 -13 -33 -9 -56 3 -19 8 -51 12 -71 l5 -38 -21
25 c-12 14 -31 41 -44 60 -18 29 -29 36 -66 41 -25 4 -47 5 -48 3 -2 -1 2 -15
10 -30 10 -23 22 -30 58 -36 31 -5 55 -18 80 -43 l35 -35 -28 0 c-16 0 -37 -5
-48 -10 -21 -12 -62 -84 -52 -94 18 -17 46 -1 79 44 20 28 40 50 45 50 14 0
34 -43 21 -48 -34 -11 -61 -46 -71 -89 -5 -26 -8 -50 -5 -52 2 -2 15 1 28 7
17 8 29 26 40 66 9 31 21 56 26 56 6 0 20 -21 32 -46 l23 -45 -25 -20 -25 -21
27 6 c32 7 34 5 58 -86 12 -48 19 -63 19 -43 1 17 -5 54 -13 83 -13 52 -13 52
11 52 39 0 72 -28 78 -68 21 -126 103 -187 337 -255 168 -49 208 -84 248 -219
25 -83 61 -128 101 -128 17 0 33 7 41 19 9 15 19 18 50 14 46 -7 68 9 68 47 0
23 4 27 23 23 32 -6 52 19 37 47 -9 16 -8 21 5 26 20 8 36 39 30 56 -9 23 -43
38 -120 53 -110 21 -139 38 -211 128 -35 43 -64 82 -64 86 0 5 38 18 84 30 97
26 123 46 102 77 -13 19 -11 21 35 43 60 27 71 47 39 73 -27 22 -29 20 35 43
90 32 108 64 50 87 l-35 14 57 40 c42 29 59 46 61 66 3 22 -2 28 -30 36 -18 6
-41 12 -52 14 -14 2 -5 13 37 41 96 66 113 116 50 144 -21 10 -39 18 -41 19
-2 1 13 23 32 49 79 103 53 178 -44 126z m60 -29 c0 -21 -61 -100 -98 -127
-23 -16 -42 -33 -42 -36 0 -3 28 -11 62 -17 34 -6 66 -16 71 -21 15 -15 -52
-72 -151 -127 l-87 -49 94 -7 c52 -4 96 -10 100 -13 9 -9 -35 -40 -116 -82
-39 -21 -70 -41 -67 -44 2 -4 26 -10 52 -14 82 -11 80 -20 -15 -49 -137 -42
-134 -40 -72 -62 30 -10 53 -24 52 -29 -1 -6 -28 -19 -60 -29 -32 -11 -60 -21
-63 -24 -3 -2 8 -14 25 -27 16 -13 27 -26 25 -28 -3 -3 -41 -14 -85 -26 -44
-12 -92 -26 -107 -32 l-27 -11 87 -105 c96 -118 137 -145 254 -164 78 -14 105
-34 58 -44 -21 -5 -30 -11 -26 -21 3 -8 9 -22 13 -31 5 -12 2 -15 -8 -11 -62
23 -60 24 -53 -32 6 -48 5 -52 -12 -47 -64 19 -70 19 -82 -7 -6 -14 -15 -26
-20 -26 -19 0 -43 39 -66 106 -32 97 -49 126 -92 164 -45 39 -71 50 -193 85
-192 54 -281 116 -296 206 -10 58 -19 74 -55 96 -37 21 -38 35 -4 62 36 28
115 28 190 0 l57 -22 21 29 c35 49 74 82 214 177 157 107 214 156 287 247 65
82 140 157 180 182 32 19 55 23 55 10z"/>
<path d="M514 885 c-4 -9 -2 -21 4 -27 15 -15 44 -1 40 19 -4 23 -36 29 -44 8z"/>
<path d="M4043 1188 c-22 -23 -47 -98 -34 -98 17 0 59 57 64 88 8 38 -2 41
-30 10z"/>
<path d="M366 1108 c-11 -15 -16 -45 -16 -87 l0 -66 25 26 c26 25 30 43 27
112 -2 42 -14 47 -36 15z"/>
<path d="M1945 1087 c-125 -49 -205 -158 -205 -277 0 -131 123 -246 239 -225
97 18 204 102 242 189 36 84 13 213 -48 268 -55 50 -161 71 -228 45z m138 -63
c61 -43 90 -101 91 -183 1 -155 -103 -245 -229 -196 -96 36 -145 106 -144 205
0 92 29 150 94 192 46 29 132 21 188 -18z"/>
<path d="M3402 1037 c-13 -13 -22 -36 -22 -54 0 -17 -9 -42 -21 -57 -19 -24
-19 -26 -2 -26 17 0 18 -10 15 -149 -3 -141 -2 -150 17 -160 12 -7 28 -8 43
-2 30 12 108 79 108 94 0 6 -13 -1 -28 -16 -35 -34 -69 -35 -81 -3 -5 13 -6
72 -3 131 l7 108 41 12 c23 7 51 19 62 27 19 13 16 14 -38 10 l-60 -4 0 56 c0
31 -4 56 -8 56 -5 0 -18 -10 -30 -23z"/>
<path d="M2378 931 c-74 -47 -77 -87 -13 -173 49 -66 57 -101 24 -118 -24 -13
-69 -5 -69 12 0 6 -11 1 -25 -12 -30 -28 -32 -46 -6 -55 26 -8 79 16 125 56
68 59 67 91 -3 173 -25 29 -41 57 -41 73 0 24 3 25 34 20 27 -4 38 -1 55 17
42 45 -14 50 -81 7z"/>
<path d="M2724 946 c-16 -7 -47 -33 -67 -57 l-37 -43 0 52 c0 47 -2 52 -22 52
-13 0 -36 -12 -53 -26 -16 -14 -24 -22 -17 -19 7 4 20 1 28 -6 12 -10 14 -34
9 -143 -4 -72 -8 -142 -11 -154 l-5 -24 29 20 c26 19 29 29 39 109 15 135 67
227 109 193 15 -13 16 -30 10 -164 l-7 -150 23 19 c13 11 24 20 26 21 1 1 7
36 11 78 12 101 54 191 91 191 l25 0 -3 -143 c-4 -139 2 -172 29 -172 12 0 99
80 99 91 0 5 -9 0 -20 -11 -11 -11 -27 -20 -36 -20 -15 0 -16 14 -9 134 8 149
1 176 -41 176 -17 0 -41 -16 -74 -50 l-50 -49 0 38 c0 24 -7 44 -18 54 -22 20
-19 20 -58 3z"/>
<path d="M3784 946 c-16 -7 -47 -33 -67 -56 l-36 -42 -3 48 c-3 41 -6 49 -24
52 -12 2 -34 -8 -50 -22 -25 -21 -26 -24 -9 -23 19 2 20 -3 17 -162 l-2 -165
30 29 c27 26 30 34 30 94 0 52 6 79 29 128 30 62 52 83 90 83 30 0 34 -31 21
-165 -9 -102 -8 -121 5 -141 8 -13 20 -24 25 -24 13 0 79 59 91 82 10 18 7 17
-21 -3 -43 -33 -51 -16 -42 91 12 141 9 180 -13 196 -23 17 -31 17 -71 0z"/>
<path d="M1603 931 c-40 -25 -80 -84 -99 -147 -37 -125 10 -236 81 -190 52 34
105 89 105 108 0 15 -8 9 -33 -24 -54 -70 -106 -50 -107 41 0 28 10 43 71 100
61 58 70 72 67 97 -4 37 -39 43 -85 15z m25 -52 c2 -17 -8 -34 -32 -58 -20
-19 -39 -32 -42 -28 -4 4 -2 25 5 46 20 68 63 93 69 40z"/>
<path d="M3086 929 l-27 -21 23 -12 c21 -11 23 -18 23 -96 0 -47 -3 -116 -7
-153 l-7 -68 28 20 c27 19 29 27 36 113 4 51 14 113 24 138 l17 45 53 1 c42 2
59 7 78 26 l24 25 -47 1 c-51 2 -81 -12 -120 -57 l-23 -26 -1 27 c0 61 -26 74
-74 37z"/>
<path d="M4265 934 c-47 -24 -72 -52 -95 -107 -39 -90 -25 -221 26 -241 8 -3
30 1 48 9 35 17 117 95 100 95 -6 0 -19 -9 -30 -21 -46 -51 -84 -44 -104 17
-15 44 -8 135 13 187 15 34 19 37 56 37 22 0 43 -5 46 -11 7 -11 55 26 55 43
0 14 -84 9 -115 -8z"/>
<path d="M4509 928 c-50 -34 -100 -139 -102 -215 -2 -99 32 -149 85 -122 34
17 108 91 108 108 0 8 -16 -4 -36 -27 -44 -52 -70 -54 -90 -7 -27 65 -20 88
40 134 65 50 86 80 86 121 0 26 -3 30 -29 30 -15 0 -43 -10 -62 -22z m30 -35
c12 -23 -8 -61 -48 -91 -35 -25 -39 -17 -20 39 12 36 36 69 50 69 4 0 12 -8
18 -17z"/>
<path d="M3989 920 c-21 -17 -22 -19 -5 -20 17 0 18 -8 11 -145 -8 -160 -2
-185 39 -164 25 13 96 80 96 91 0 4 -12 -4 -26 -17 -30 -28 -52 -32 -60 -11
-3 7 -1 69 4 136 6 68 8 129 5 137 -7 19 -37 16 -64 -7z"/>
</g>
</svg>
