<svg class="svg-icon" style="width: 1.388671875em; height: 1em;vertical-align: middle;fill: currentColor;overflow: hidden;" viewBox="0 0 1422 1024" version="1.1" xmlns="http://www.w3.org/2000/svg"><path d="M76.537 489.97l69.987 36.063s31.784 18.184 48.593-15.892l173.287-362.16s16.35-30.867-10.391-45.537l-76.405-37.286s-23.686-13.294-39.12 14.67C242.03 91.136 64.772 448.864 64.772 448.864s-11.308 29.34 11.766 41.106m1142.102 36.827L1290 493.943s34.077-13.753 17.726-48.135L1129.551 86.093s-14.212-31.937-42.329-19.865l-76.252 36.98s-25.06 10.544-12.836 39.73c8.557 7.335 180.927 367.814 180.927 367.814s16.045 26.895 39.578 16.045m-972.636-1.222l23.533-49.97 82.823 104.523s53.79-12.378 72.738 21.24c0 0 17.878 20.477 10.085 59.138 0 0 11.155 8.099 11.92 13.142 0 0 37.132-8.863 59.442 17.267 0 0 20.477 16.504 18.032 48.135 0 0 14.67 6.265 17.726 14.976 0 0 36.521-9.016 54.095 12.072 0 0 21.546 20.323 20.018 43.856l33.77 24.602s31.48 2.598 36.675 27.353l30.256 22.31s48.441 19.102 51.192-29.186L654.464 768.39s-13.447-34.84 28.27-29.493l169.62 119.345s27.658 11.766 44.467-14.517c0 0 16.35-22.769-6.877-47.218L709.63 666.16s-15.893-36.522 25.06-33.618l213.935 151.434s30.409 12.072 43.245-10.544c0 0 17.267-22.615 0-45.995L755.472 555.22s-14.212-41.259 30.103-30.715l243.58 173.592s36.827 11.614 53.33-18.49c0 0 20.782-32.243-7.182-58.832l-344.587-300.73s-64.027-30.715-102.23 33.466c0 0-6.723 104.369-122.553 123.317 0 0-79.156-6.112-60.666-57.915 0 0 23.228-30.715 21.241-95.353 0 0 2.598-46.454 34.84-86.032H377.268l27.353-56.54h187.345s77.016-43.704 135.084-39.578c0 0 75.641 4.126 95.965 15.587 0 0 100.243 32.09 145.17 24.602l167.785 347.643-26.59 60.666s49.053 50.427 12.837 111.704c-10.086 20.476-35.91 40.342-78.239 42.175 0 0 6.418 41.259-23.227 64.486 0 0-21.852 29.95-74.724 21.7 0 0 3.056 36.368-31.938 60.665 0 0-41.717 35.757-106.05-7.946 0 0-10.238 40.953-61.582 49.51 0 0-37.439 5.807-59.29-15.28 0 0-39.273 73.96-95.201 32.242 0 0-35.3-29.34-10.544-70.751 0 0-47.677 75.335-104.37 18.643 0 0-31.325-23.686-2.291-73.043 0 0-44.926 51.038-94.437 4.737 0 0-33.77-27.506-6.876-78.85 0 0-45.996 54.247-99.48 2.445 0 0-22.463-20.782-9.474-66.778l51.803-70.751-70.293-89.241z" fill="" /></svg>